<svg xmlns="http://www.w3.org/2000/svg" width="2019" height="282.185" viewBox="-661.5 164.5 2019 282.185"><path opacity=".5" fill="#291A94" d="M1359.321 342.437c-11.979 9.693-125.339 29.492-135.427 30.832-145.01 18.663-294.813 8.558-438.689-11.756-278.044-39.489-526.2-154.458-814.331-174.05-218.525-14.848-451.048-43.41-632.244 74.343v184.879h2020.691V342.437z"/><path fill="#16087F" d="M1359.952 383.168c-6.304 4.123-55.608 14.847-59.896 15.672-58.257 12.064-118.532 17.734-178.551 19.692-136.437 4.332-274.89-12.887-408.173-39.49-133.791-26.707-260.014-72.797-388.38-112.598-242.354-75.167-541.711-126.208-797.053-66.507-57.5 13.404-112.604 33.614-161.908 61.249-3.907 2.164-27.491 13.095-27.491 16.6v168.897h2020.821c0 .104.631-63.412.631-63.515z"/></svg>